<?xml version="1.0" encoding="UTF-8"?>
<svg width="16" height="16" viewBox="0 0 16 16" xmlns="http://www.w3.org/2000/svg">
    <defs>
        <!-- Dark theme background -->
        <radialGradient id="bgDark" cx="50%" cy="50%" r="70%">
            <stop offset="0%" style="stop-color:#1E3A5F;stop-opacity:1" />
            <stop offset="50%" style="stop-color:#0F2A44;stop-opacity:1" />
            <stop offset="100%" style="stop-color:#0A1B2E;stop-opacity:1" />
        </radialGradient>

        <!-- Mandala pattern for dark theme -->
        <linearGradient id="mandalaDark" x1="0%" y1="0%" x2="100%" y2="100%">
            <stop offset="0%" style="stop-color:#22D3EE;stop-opacity:1" />
            <stop offset="100%" style="stop-color:#06B6D4;stop-opacity:1" />
        </linearGradient>

        <!-- Nagari character for dark theme -->
        <linearGradient id="nagariDark" x1="0%" y1="0%" x2="100%" y2="100%">
            <stop offset="0%" style="stop-color:#FB923C;stop-opacity:1" />
            <stop offset="100%" style="stop-color:#F97316;stop-opacity:1" />
        </linearGradient>
    </defs>

    <!-- Background -->
    <circle cx="8" cy="8" r="8" fill="url(#bgDark)"/>

    <!-- Simplified mandala ring -->
    <circle cx="8" cy="8" r="7" fill="none" stroke="url(#mandalaDark)" stroke-width="0.5" opacity="0.8"/>

    <!-- Simplified petals -->
    <g transform="translate(8,8)" stroke="url(#mandalaDark)" stroke-width="0.3" fill="none" opacity="0.6">
        <path d="M0,-6 Q1,-5 0,-4 Q-1,-5 0,-6" transform="rotate(0)"/>
        <path d="M0,-6 Q1,-5 0,-4 Q-1,-5 0,-6" transform="rotate(90)"/>
        <path d="M0,-6 Q1,-5 0,-4 Q-1,-5 0,-6" transform="rotate(180)"/>
        <path d="M0,-6 Q1,-5 0,-4 Q-1,-5 0,-6" transform="rotate(270)"/>
    </g>

    <!-- Central circle -->
    <circle cx="8" cy="8" r="4" fill="#0F2A44" stroke="url(#mandalaDark)" stroke-width="0.5"/>

    <!-- Simplified Nagari character -->
    <g transform="translate(8,8)" fill="url(#nagariDark)">
        <!-- Top line -->
        <rect x="-2" y="-2" width="4" height="0.5" rx="0.2"/>
        <!-- Left stroke -->
        <rect x="-2" y="-2" width="0.5" height="3" rx="0.2"/>
        <!-- Central curve -->
        <path d="M-1.5,-1.5 Q0,-1 1.5,-1.5 Q1.5,-0.5 0,0 Q-1.5,-0.5 -1.5,-1.5"/>
        <!-- Right element -->
        <rect x="1.5" y="-2" width="0.5" height="2" rx="0.2"/>
    </g>
</svg>
